<svg viewBox="0 0 64 64" fill="none" xmlns="http://www.w3.org/2000/svg">
  <!-- Dark background -->
  <rect width="64" height="64" rx="14" fill="#0B0E14"/>

  <!-- Outer arcs -->
  <path d="M5 29.5 C5 14.5 17.5 2 32.5 2" stroke="rgba(70,241,197,0.4)" stroke-width="1.2" stroke-linecap="round"/>
  <path d="M59 29.5 C59 14.5 46.5 2 31.5 2" stroke="rgba(70,241,197,0.4)" stroke-width="1.2" stroke-linecap="round"/>

  <!-- Mid arcs -->
  <path d="M12 30 C12 19.8 20 12 30 12" stroke="rgba(70,241,197,0.65)" stroke-width="1.1" stroke-linecap="round"/>
  <path d="M52 30 C52 19.8 44 12 34 12" stroke="rgba(70,241,197,0.65)" stroke-width="1.1" stroke-linecap="round"/>

  <!-- Inner arcs -->
  <path d="M20 30 C20 24.5 24.5 20 30 20" stroke="#46f1c5" stroke-width="1" stroke-linecap="round"/>
  <path d="M44 30 C44 24.5 39.5 20 34 20" stroke="#46f1c5" stroke-width="1" stroke-linecap="round"/>

  <!-- Dot glow -->
  <circle cx="32" cy="30" r="8" fill="rgba(70,241,197,0.12)"/>

  <!-- Dot core -->
  <circle cx="32" cy="30" r="5">
    <defs>
      <radialGradient id="g1" cx="50%" cy="50%" r="50%">
        <stop offset="0%" stop-color="#46f1c5"/>
        <stop offset="100%" stop-color="#00d4aa"/>
      </radialGradient>
    </defs>
    <title>ET</title>
  </circle>
  <circle cx="32" cy="30" r="5" fill="#46f1c5"/>

  <!-- Arrow down -->
  <path d="M27 38 L32 50 L37 38" stroke="#46f1c5" stroke-width="1.8" stroke-linecap="round" stroke-linejoin="round"/>
</svg>
